<?plantuml 1.2026.2beta3?><svg xmlns="http://www.w3.org/2000/svg" xmlns:xlink="http://www.w3.org/1999/xlink" contentStyleType="text/css" data-diagram-type="CLASS" height="1095.4167px" preserveAspectRatio="none" style="width:1766px;height:1095px;" version="1.1" viewBox="0 0 1766 1095" width="1766.875px" zoomAndPan="magnify"><defs/><g><!--class questions--><g class="entity" data-qualified-name="questions" data-source-line="20" id="ent0002"><rect fill="#FFFFFF" height="110" rx="8.0208" ry="8.0208" style="stroke:#000000;stroke-width:1.1458;" width="228.6587" x="40.7688" y="490.4167"/><ellipse cx="75.1438" cy="527.0833" fill="#ADD1B2" rx="25.2083" ry="25.2083" style="stroke:#181818;stroke-width:2.2917;"/><path d="M84.5611,540.8333 L66.8723,540.8333 L66.8723,512.4382 L84.5611,512.4382 L84.5611,517.3796 L72.494,517.3796 L72.494,523.5026 L83.4152,523.5026 L83.4152,528.444 L72.494,528.444 L72.494,535.8919 L84.5611,535.8919 L84.5611,540.8333 Z " fill="#000000"/><text fill="#000000" font-family="Latin Modern Roman" font-size="32.0833" lengthAdjust="spacing" textLength="155.3253" x="107.2271" y="538.1903">questions</text><line style="stroke:#000000;stroke-width:1.1458;" x1="43.0604" x2="267.1357" y1="563.75" y2="563.75"/><line style="stroke:#000000;stroke-width:1.1458;" x1="43.0604" x2="267.1357" y1="582.0833" y2="582.0833"/></g><!--class qv--><g class="entity" data-qualified-name="qv" data-source-line="21" id="ent0003"><rect fill="#FFFFFF" height="110" rx="8.0208" ry="8.0208" style="stroke:#000000;stroke-width:1.1458;" width="362.2087" x="448.1813" y="586.6667"/><ellipse cx="482.5563" cy="623.3333" fill="#ADD1B2" rx="25.2083" ry="25.2083" style="stroke:#181818;stroke-width:2.2917;"/><path d="M491.9736,637.0833 L474.2848,637.0833 L474.2848,608.6882 L491.9736,608.6882 L491.9736,613.6296 L479.9065,613.6296 L479.9065,619.7526 L490.8277,619.7526 L490.8277,624.694 L479.9065,624.694 L479.9065,632.1419 L491.9736,632.1419 L491.9736,637.0833 Z " fill="#000000"/><text fill="#000000" font-family="Latin Modern Roman" font-size="32.0833" lengthAdjust="spacing" textLength="288.8753" x="514.6396" y="634.4403">question_versions</text><line style="stroke:#000000;stroke-width:1.1458;" x1="450.4729" x2="808.0982" y1="660" y2="660"/><line style="stroke:#000000;stroke-width:1.1458;" x1="450.4729" x2="808.0982" y1="678.3333" y2="678.3333"/></g><!--class qc--><g class="entity" data-qualified-name="qc" data-source-line="22" id="ent0004"><rect fill="#FFFFFF" height="110" rx="8.0208" ry="8.0208" style="stroke:#000000;stroke-width:1.1458;" width="348.5952" x="1005.5604" y="586.6667"/><ellipse cx="1039.9354" cy="623.3333" fill="#ADD1B2" rx="25.2083" ry="25.2083" style="stroke:#181818;stroke-width:2.2917;"/><path d="M1049.3527,637.0833 L1031.6639,637.0833 L1031.6639,608.6882 L1049.3527,608.6882 L1049.3527,613.6296 L1037.2857,613.6296 L1037.2857,619.7526 L1048.2069,619.7526 L1048.2069,624.694 L1037.2857,624.694 L1037.2857,632.1419 L1049.3527,632.1419 L1049.3527,637.0833 Z " fill="#000000"/><text fill="#000000" font-family="Latin Modern Roman" font-size="32.0833" lengthAdjust="spacing" textLength="275.2618" x="1072.0188" y="634.4403">question_choices</text><line style="stroke:#000000;stroke-width:1.1458;" x1="1007.8521" x2="1351.8639" y1="660" y2="660"/><line style="stroke:#000000;stroke-width:1.1458;" x1="1007.8521" x2="1351.8639" y1="678.3333" y2="678.3333"/></g><!--class tags--><g class="entity" data-qualified-name="tags" data-source-line="24" id="ent0005"><rect fill="#FFFFFF" height="110" rx="8.0208" ry="8.0208" style="stroke:#000000;stroke-width:1.1458;" width="142.654" x="557.975" y="776.875"/><ellipse cx="592.35" cy="813.5417" fill="#ADD1B2" rx="25.2083" ry="25.2083" style="stroke:#181818;stroke-width:2.2917;"/><path d="M601.7673,827.2917 L584.0785,827.2917 L584.0785,798.8965 L601.7673,798.8965 L601.7673,803.8379 L589.7003,803.8379 L589.7003,809.9609 L600.6215,809.9609 L600.6215,814.9023 L589.7003,814.9023 L589.7003,822.3503 L601.7673,822.3503 L601.7673,827.2917 Z " fill="#000000"/><text fill="#000000" font-family="Latin Modern Roman" font-size="32.0833" lengthAdjust="spacing" textLength="69.3207" x="624.4333" y="824.6486">tags</text><line style="stroke:#000000;stroke-width:1.1458;" x1="560.2667" x2="698.3373" y1="850.2083" y2="850.2083"/><line style="stroke:#000000;stroke-width:1.1458;" x1="560.2667" x2="698.3373" y1="868.5417" y2="868.5417"/></g><!--class qvt--><g class="entity" data-qualified-name="qvt" data-source-line="25" id="ent0006"><rect fill="#FFFFFF" height="110" rx="8.0208" ry="8.0208" style="stroke:#000000;stroke-width:1.1458;" width="430.8557" x="964.425" y="776.875"/><ellipse cx="998.8" cy="813.5417" fill="#ADD1B2" rx="25.2083" ry="25.2083" style="stroke:#181818;stroke-width:2.2917;"/><path d="M1008.2173,827.2917 L990.5285,827.2917 L990.5285,798.8965 L1008.2173,798.8965 L1008.2173,803.8379 L996.1503,803.8379 L996.1503,809.9609 L1007.0715,809.9609 L1007.0715,814.9023 L996.1503,814.9023 L996.1503,822.3503 L1008.2173,822.3503 L1008.2173,827.2917 Z " fill="#000000"/><text fill="#000000" font-family="Latin Modern Roman" font-size="32.0833" lengthAdjust="spacing" textLength="357.5224" x="1030.8833" y="824.6486">question_version_tags</text><line style="stroke:#000000;stroke-width:1.1458;" x1="966.7167" x2="1392.989" y1="850.2083" y2="850.2083"/><line style="stroke:#000000;stroke-width:1.1458;" x1="966.7167" x2="1392.989" y1="868.5417" y2="868.5417"/></g><!--class collections--><g class="entity" data-qualified-name="collections" data-source-line="27" id="ent0007"><rect fill="#FFFFFF" height="110" rx="8.0208" ry="8.0208" style="stroke:#000000;stroke-width:1.1458;" width="243.9797" x="33.1146" y="967.0833"/><ellipse cx="67.4896" cy="1003.75" fill="#ADD1B2" rx="25.2083" ry="25.2083" style="stroke:#181818;stroke-width:2.2917;"/><path d="M76.9069,1017.5 L59.2181,1017.5 L59.2181,989.1048 L76.9069,989.1048 L76.9069,994.0462 L64.8398,994.0462 L64.8398,1000.1693 L75.7611,1000.1693 L75.7611,1005.1107 L64.8398,1005.1107 L64.8398,1012.5586 L76.9069,1012.5586 L76.9069,1017.5 Z " fill="#000000"/><text fill="#000000" font-family="Latin Modern Roman" font-size="32.0833" lengthAdjust="spacing" textLength="170.6464" x="99.5729" y="1014.857">collections</text><line style="stroke:#000000;stroke-width:1.1458;" x1="35.4062" x2="274.8026" y1="1040.4167" y2="1040.4167"/><line style="stroke:#000000;stroke-width:1.1458;" x1="35.4062" x2="274.8026" y1="1058.75" y2="1058.75"/></g><!--class citems--><g class="entity" data-qualified-name="citems" data-source-line="28" id="ent0008"><rect fill="#FFFFFF" height="110" rx="8.0208" ry="8.0208" style="stroke:#000000;stroke-width:1.1458;" width="332.5065" x="463.0542" y="967.0833"/><ellipse cx="497.4292" cy="1003.75" fill="#ADD1B2" rx="25.2083" ry="25.2083" style="stroke:#181818;stroke-width:2.2917;"/><path d="M506.8465,1017.5 L489.1577,1017.5 L489.1577,989.1048 L506.8465,989.1048 L506.8465,994.0462 L494.7794,994.0462 L494.7794,1000.1693 L505.7007,1000.1693 L505.7007,1005.1107 L494.7794,1005.1107 L494.7794,1012.5586 L506.8465,1012.5586 L506.8465,1017.5 Z " fill="#000000"/><text fill="#000000" font-family="Latin Modern Roman" font-size="32.0833" lengthAdjust="spacing" textLength="259.1732" x="529.5125" y="1014.857">collection_items</text><line style="stroke:#000000;stroke-width:1.1458;" x1="465.3458" x2="793.269" y1="1040.4167" y2="1040.4167"/><line style="stroke:#000000;stroke-width:1.1458;" x1="465.3458" x2="793.269" y1="1058.75" y2="1058.75"/></g><!--class users--><g class="entity" data-qualified-name="users" data-source-line="30" id="ent0009"><rect fill="#FFFFFF" height="110" rx="8.0208" ry="8.0208" style="stroke:#000000;stroke-width:1.1458;" width="278.1152" x="16.0417" y="206.25"/><ellipse cx="50.4167" cy="242.9167" fill="#ADD1B2" rx="25.2083" ry="25.2083" style="stroke:#181818;stroke-width:2.2917;"/><path d="M59.834,256.6667 L42.1452,256.6667 L42.1452,228.2715 L59.834,228.2715 L59.834,233.2129 L47.7669,233.2129 L47.7669,239.3359 L58.6882,239.3359 L58.6882,244.2773 L47.7669,244.2773 L47.7669,251.7253 L59.834,251.7253 L59.834,256.6667 Z " fill="#000000"/><text fill="#000000" font-family="Latin Modern Roman" font-size="32.0833" lengthAdjust="spacing" textLength="204.7819" x="82.5" y="254.0236">users_profile</text><line style="stroke:#000000;stroke-width:1.1458;" x1="18.3333" x2="291.8652" y1="279.5833" y2="279.5833"/><line style="stroke:#000000;stroke-width:1.1458;" x1="18.3333" x2="291.8652" y1="297.9167" y2="297.9167"/></g><!--class sessions--><g class="entity" data-qualified-name="sessions" data-source-line="31" id="ent0010"><rect fill="#FFFFFF" height="110" rx="8.0208" ry="8.0208" style="stroke:#000000;stroke-width:1.1458;" width="208.8102" x="524.8833" y="16.0417"/><ellipse cx="559.2583" cy="52.7083" fill="#ADD1B2" rx="25.2083" ry="25.2083" style="stroke:#181818;stroke-width:2.2917;"/><path d="M568.6757,66.4583 L550.9868,66.4583 L550.9868,38.0632 L568.6757,38.0632 L568.6757,43.0046 L556.6086,43.0046 L556.6086,49.1276 L567.5298,49.1276 L567.5298,54.069 L556.6086,54.069 L556.6086,61.5169 L568.6757,61.5169 L568.6757,66.4583 Z " fill="#000000"/><text fill="#000000" font-family="Latin Modern Roman" font-size="32.0833" lengthAdjust="spacing" textLength="135.4769" x="591.3417" y="63.8153">sessions</text><line style="stroke:#000000;stroke-width:1.1458;" x1="527.175" x2="731.4019" y1="89.375" y2="89.375"/><line style="stroke:#000000;stroke-width:1.1458;" x1="527.175" x2="731.4019" y1="107.7083" y2="107.7083"/></g><!--class si--><g class="entity" data-qualified-name="si" data-source-line="32" id="ent0011"><rect fill="#FFFFFF" height="110" rx="8.0208" ry="8.0208" style="stroke:#000000;stroke-width:1.1458;" width="297.337" x="1031.2042" y="126.0417"/><ellipse cx="1065.5792" cy="162.7083" fill="#ADD1B2" rx="25.2083" ry="25.2083" style="stroke:#181818;stroke-width:2.2917;"/><path d="M1074.9965,176.4583 L1057.3077,176.4583 L1057.3077,148.0632 L1074.9965,148.0632 L1074.9965,153.0046 L1062.9294,153.0046 L1062.9294,159.1276 L1073.8507,159.1276 L1073.8507,164.069 L1062.9294,164.069 L1062.9294,171.5169 L1074.9965,171.5169 L1074.9965,176.4583 Z " fill="#000000"/><text fill="#000000" font-family="Latin Modern Roman" font-size="32.0833" lengthAdjust="spacing" textLength="224.0037" x="1097.6625" y="173.8153">session_items</text><line style="stroke:#000000;stroke-width:1.1458;" x1="1033.4958" x2="1326.2495" y1="199.375" y2="199.375"/><line style="stroke:#000000;stroke-width:1.1458;" x1="1033.4958" x2="1326.2495" y1="217.7083" y2="217.7083"/></g><!--class attempts--><g class="entity" data-qualified-name="attempts" data-source-line="33" id="ent0012"><rect fill="#FFFFFF" height="110" rx="8.0208" ry="8.0208" style="stroke:#000000;stroke-width:1.1458;" width="218.8049" x="1532.7813" y="410.2083"/><ellipse cx="1567.1563" cy="446.875" fill="#ADD1B2" rx="25.2083" ry="25.2083" style="stroke:#181818;stroke-width:2.2917;"/><path d="M1576.5736,460.625 L1558.8848,460.625 L1558.8848,432.2298 L1576.5736,432.2298 L1576.5736,437.1712 L1564.5065,437.1712 L1564.5065,443.2943 L1575.4277,443.2943 L1575.4277,448.2357 L1564.5065,448.2357 L1564.5065,455.6836 L1576.5736,455.6836 L1576.5736,460.625 Z " fill="#000000"/><text fill="#000000" font-family="Latin Modern Roman" font-size="32.0833" lengthAdjust="spacing" textLength="145.4716" x="1599.2396" y="457.982">attempts</text><line style="stroke:#000000;stroke-width:1.1458;" x1="1535.0729" x2="1749.2945" y1="483.5417" y2="483.5417"/><line style="stroke:#000000;stroke-width:1.1458;" x1="1535.0729" x2="1749.2945" y1="501.875" y2="501.875"/></g><!--class uqs--><g class="entity" data-qualified-name="uqs" data-source-line="35" id="ent0013"><rect fill="#FFFFFF" height="110" rx="8.0208" ry="8.0208" style="stroke:#000000;stroke-width:1.1458;" width="395.2789" x="431.6583" y="206.25"/><ellipse cx="466.0333" cy="242.9167" fill="#ADD1B2" rx="25.2083" ry="25.2083" style="stroke:#181818;stroke-width:2.2917;"/><path d="M475.4507,256.6667 L457.7618,256.6667 L457.7618,228.2715 L475.4507,228.2715 L475.4507,233.2129 L463.3836,233.2129 L463.3836,239.3359 L474.3048,239.3359 L474.3048,244.2773 L463.3836,244.2773 L463.3836,251.7253 L475.4507,251.7253 L475.4507,256.6667 Z " fill="#000000"/><text fill="#000000" font-family="Latin Modern Roman" font-size="32.0833" lengthAdjust="spacing" textLength="321.9456" x="498.1167" y="254.0236">user_question_state</text><line style="stroke:#000000;stroke-width:1.1458;" x1="433.95" x2="824.6456" y1="279.5833" y2="279.5833"/><line style="stroke:#000000;stroke-width:1.1458;" x1="433.95" x2="824.6456" y1="297.9167" y2="297.9167"/></g><!--class reviews--><g class="entity" data-qualified-name="reviews" data-source-line="36" id="ent0014"><rect fill="#FFFFFF" height="110" rx="8.0208" ry="8.0208" style="stroke:#000000;stroke-width:1.1458;" width="282.8776" x="487.85" y="396.4583"/><ellipse cx="522.225" cy="433.125" fill="#ADD1B2" rx="25.2083" ry="25.2083" style="stroke:#181818;stroke-width:2.2917;"/><path d="M531.6423,446.875 L513.9535,446.875 L513.9535,418.4798 L531.6423,418.4798 L531.6423,423.4212 L519.5753,423.4212 L519.5753,429.5443 L530.4965,429.5443 L530.4965,434.4857 L519.5753,434.4857 L519.5753,441.9336 L531.6423,441.9336 L531.6423,446.875 Z " fill="#000000"/><text fill="#000000" font-family="Latin Modern Roman" font-size="32.0833" lengthAdjust="spacing" textLength="209.5443" x="554.3083" y="444.232">user_reviews</text><line style="stroke:#000000;stroke-width:1.1458;" x1="490.1417" x2="768.4359" y1="469.7917" y2="469.7917"/><line style="stroke:#000000;stroke-width:1.1458;" x1="490.1417" x2="768.4359" y1="488.125" y2="488.125"/></g><!--link questions to qv--><g class="link" data-entity-1="ent0002" data-entity-2="ent0003" data-link-type="crowfoot" data-source-line="39" id="lnk15"><path codeLine="39" d="M288.2688,542.3688 C377.6437,542.3688 468.2563,542.3688 468.2563,542.3688 C468.2563,542.3688 468.2563,521.8583 468.2563,544.3854" fill="none" id="questions-qv" style="stroke:#000000;stroke-width:2.2917;"/><line style="stroke:#000000;stroke-width:2.2917;" x1="279.1021" x2="279.1021" y1="551.5354" y2="533.2021"/><line style="stroke:#000000;stroke-width:2.2917;" x1="285.9771" x2="285.9771" y1="551.5354" y2="533.2021"/><line style="stroke:#000000;stroke-width:2.2917;" x1="288.2688" x2="269.9354" y1="542.3688" y2="542.3688"/><line style="stroke:#000000;stroke-width:2.2917;" x1="468.2563" x2="482.0063" y1="567.3021" y2="585.6354"/><line style="stroke:#000000;stroke-width:2.2917;" x1="468.2563" x2="454.5063" y1="567.3021" y2="585.6354"/><line style="stroke:#000000;stroke-width:2.2917;" x1="468.2563" x2="468.2563" y1="567.3021" y2="585.6354"/><ellipse cx="468.2563" cy="553.5521" fill="none" rx="9.1667" ry="9.1667" style="stroke:#000000;stroke-width:2.2917;"/><text fill="#000000" font-family="sans-serif" font-size="29.7917" lengthAdjust="spacing" textLength="52.6591" x="338.0208" y="572.3137">has</text></g><!--link qv to qc--><g class="link" data-entity-1="ent0003" data-entity-2="ent0004" data-link-type="crowfoot" data-source-line="40" id="lnk16"><path codeLine="40" d="M829.4229,623.3333 C891.7562,623.3333 901.7708,623.3333 963.5542,623.3333" fill="none" id="qv-qc" style="stroke:#000000;stroke-width:2.2917;"/><line style="stroke:#000000;stroke-width:2.2917;" x1="820.2562" x2="820.2562" y1="632.5" y2="614.1667"/><line style="stroke:#000000;stroke-width:2.2917;" x1="827.1312" x2="827.1312" y1="632.5" y2="614.1667"/><line style="stroke:#000000;stroke-width:2.2917;" x1="829.4229" x2="811.0896" y1="623.3333" y2="623.3333"/><line style="stroke:#000000;stroke-width:2.2917;" x1="986.4708" x2="1004.8042" y1="623.3333" y2="609.5833"/><line style="stroke:#000000;stroke-width:2.2917;" x1="986.4708" x2="1004.8042" y1="623.3333" y2="637.0833"/><line style="stroke:#000000;stroke-width:2.2917;" x1="986.4708" x2="1004.8042" y1="623.3333" y2="623.3333"/><ellipse cx="972.7208" cy="623.3333" fill="none" rx="9.1667" ry="9.1667" style="stroke:#000000;stroke-width:2.2917;"/><text fill="#000000" font-family="sans-serif" font-size="29.7917" lengthAdjust="spacing" textLength="52.6591" x="855.25" y="653.2783">has</text></g><!--link tags to qvt--><g class="link" data-entity-1="ent0005" data-entity-2="ent0006" data-link-type="crowfoot" data-source-line="43" id="lnk17"><path codeLine="43" d="M719.6062,831.875 C786.2021,831.875 829.1021,831.875 922.1667,831.875" fill="none" id="tags-qvt" style="stroke:#000000;stroke-width:2.2917;"/><line style="stroke:#000000;stroke-width:2.2917;" x1="710.4396" x2="710.4396" y1="841.0417" y2="822.7083"/><line style="stroke:#000000;stroke-width:2.2917;" x1="717.3146" x2="717.3146" y1="841.0417" y2="822.7083"/><line style="stroke:#000000;stroke-width:2.2917;" x1="719.6062" x2="701.2729" y1="831.875" y2="831.875"/><line style="stroke:#000000;stroke-width:2.2917;" x1="945.0833" x2="963.4167" y1="831.875" y2="818.125"/><line style="stroke:#000000;stroke-width:2.2917;" x1="945.0833" x2="963.4167" y1="831.875" y2="845.625"/><line style="stroke:#000000;stroke-width:2.2917;" x1="945.0833" x2="963.4167" y1="831.875" y2="831.875"/><ellipse cx="931.3333" cy="831.875" fill="none" rx="9.1667" ry="9.1667" style="stroke:#000000;stroke-width:2.2917;"/><text fill="#000000" font-family="sans-serif" font-size="29.7917" lengthAdjust="spacing" textLength="81.7089" x="749.8562" y="861.82">maps</text></g><!--link qv to qvt--><g class="link" data-entity-1="ent0003" data-entity-2="ent0006" data-link-type="crowfoot" data-source-line="44" id="lnk18"><path codeLine="44" d="M829.2167,660 C917.3771,660 986.1729,660 986.1729,660 C986.1729,660 986.1729,685.0479 986.1729,735.3042" fill="none" id="qv-qvt" style="stroke:#000000;stroke-width:2.2917;"/><line style="stroke:#000000;stroke-width:2.2917;" x1="820.05" x2="820.05" y1="669.1667" y2="650.8333"/><line style="stroke:#000000;stroke-width:2.2917;" x1="826.925" x2="826.925" y1="669.1667" y2="650.8333"/><line style="stroke:#000000;stroke-width:2.2917;" x1="829.2167" x2="810.8833" y1="660" y2="660"/><line style="stroke:#000000;stroke-width:2.2917;" x1="986.1729" x2="999.9229" y1="758.2208" y2="776.5542"/><line style="stroke:#000000;stroke-width:2.2917;" x1="986.1729" x2="972.4229" y1="758.2208" y2="776.5542"/><line style="stroke:#000000;stroke-width:2.2917;" x1="986.1729" x2="986.1729" y1="758.2208" y2="776.5542"/><ellipse cx="986.1729" cy="744.4708" fill="none" rx="9.1667" ry="9.1667" style="stroke:#000000;stroke-width:2.2917;"/><text fill="#000000" font-family="sans-serif" font-size="29.7917" lengthAdjust="spacing" textLength="81.7089" x="874.2937" y="689.945">maps</text></g><!--link collections to citems--><g class="link" data-entity-1="ent0007" data-entity-2="ent0008" data-link-type="crowfoot" data-source-line="47" id="lnk19"><path codeLine="47" d="M296.175,1040.4167 C352.4125,1040.4167 360.3875,1040.4167 421.1625,1040.4167" fill="none" id="collections-citems" style="stroke:#000000;stroke-width:2.2917;"/><line style="stroke:#000000;stroke-width:2.2917;" x1="287.0083" x2="287.0083" y1="1049.5833" y2="1031.25"/><line style="stroke:#000000;stroke-width:2.2917;" x1="293.8833" x2="293.8833" y1="1049.5833" y2="1031.25"/><line style="stroke:#000000;stroke-width:2.2917;" x1="296.175" x2="277.8417" y1="1040.4167" y2="1040.4167"/><line style="stroke:#000000;stroke-width:2.2917;" x1="444.0792" x2="462.4125" y1="1040.4167" y2="1026.6667"/><line style="stroke:#000000;stroke-width:2.2917;" x1="444.0792" x2="462.4125" y1="1040.4167" y2="1054.1667"/><line style="stroke:#000000;stroke-width:2.2917;" x1="444.0792" x2="462.4125" y1="1040.4167" y2="1040.4167"/><ellipse cx="430.3292" cy="1040.4167" fill="none" rx="9.1667" ry="9.1667" style="stroke:#000000;stroke-width:2.2917;"/><text fill="#000000" font-family="sans-serif" font-size="29.7917" lengthAdjust="spacing" textLength="52.6591" x="317.4187" y="1070.3616">has</text></g><!--link questions to citems--><g class="link" data-entity-1="ent0002" data-entity-2="ent0008" data-link-type="crowfoot" data-source-line="48" id="lnk20"><path codeLine="48" d="M288.3604,564.5063 C288.3604,564.5063 284.9229,1003.75 284.9229,1003.75 C284.9229,1003.75 333.1625,1003.75 420.9104,1003.75" fill="none" id="questions-citems" style="stroke:#000000;stroke-width:2.2917;"/><line style="stroke:#000000;stroke-width:2.2917;" x1="279.1937" x2="279.1937" y1="573.6729" y2="555.3396"/><line style="stroke:#000000;stroke-width:2.2917;" x1="286.0687" x2="286.0687" y1="573.6729" y2="555.3396"/><line style="stroke:#000000;stroke-width:2.2917;" x1="288.3604" x2="270.0271" y1="564.5063" y2="564.5063"/><line style="stroke:#000000;stroke-width:2.2917;" x1="443.8271" x2="462.1604" y1="1003.75" y2="990"/><line style="stroke:#000000;stroke-width:2.2917;" x1="443.8271" x2="462.1604" y1="1003.75" y2="1017.5"/><line style="stroke:#000000;stroke-width:2.2917;" x1="443.8271" x2="462.1604" y1="1003.75" y2="1003.75"/><ellipse cx="430.0771" cy="1003.75" fill="none" rx="9.1667" ry="9.1667" style="stroke:#000000;stroke-width:2.2917;"/><text fill="#000000" font-family="sans-serif" font-size="29.7917" lengthAdjust="spacing" textLength="123.4579" x="161.1729" y="895.2325">includes</text></g><!--link users to sessions--><g class="link" data-entity-1="ent0009" data-entity-2="ent0010" data-link-type="crowfoot" data-source-line="51" id="lnk21"><path codeLine="51" d="M156.5896,186.8854 C156.5896,130.7625 156.5896,71.0417 156.5896,71.0417 C156.5896,71.0417 343.2458,71.0417 482.5563,71.0417" fill="none" id="users-sessions" style="stroke:#000000;stroke-width:2.2917;"/><line style="stroke:#000000;stroke-width:2.2917;" x1="165.7563" x2="147.4229" y1="196.0521" y2="196.0521"/><line style="stroke:#000000;stroke-width:2.2917;" x1="165.7563" x2="147.4229" y1="189.1771" y2="189.1771"/><line style="stroke:#000000;stroke-width:2.2917;" x1="156.5896" x2="156.5896" y1="186.8854" y2="205.2188"/><line style="stroke:#000000;stroke-width:2.2917;" x1="505.4729" x2="523.8063" y1="71.0417" y2="57.2917"/><line style="stroke:#000000;stroke-width:2.2917;" x1="505.4729" x2="523.8063" y1="71.0417" y2="84.7917"/><line style="stroke:#000000;stroke-width:2.2917;" x1="505.4729" x2="523.8063" y1="71.0417" y2="71.0417"/><ellipse cx="491.7229" cy="71.0417" fill="none" rx="9.1667" ry="9.1667" style="stroke:#000000;stroke-width:2.2917;"/><text fill="#000000" font-family="sans-serif" font-size="29.7917" lengthAdjust="spacing" textLength="65.5329" x="206.6625" y="100.9866">runs</text></g><!--link sessions to si--><g class="link" data-entity-1="ent0010" data-entity-2="ent0011" data-link-type="crowfoot" data-source-line="52" id="lnk22"><path codeLine="52" d="M630.9646,144.6958 C630.9646,165.6187 630.9646,166.1458 630.9646,166.1458 C630.9646,166.1458 826.8104,166.1458 989.3583,166.1458" fill="none" id="sessions-si" style="stroke:#000000;stroke-width:2.2917;"/><line style="stroke:#000000;stroke-width:2.2917;" x1="621.7979" x2="640.1312" y1="135.5292" y2="135.5292"/><line style="stroke:#000000;stroke-width:2.2917;" x1="621.7979" x2="640.1312" y1="142.4042" y2="142.4042"/><line style="stroke:#000000;stroke-width:2.2917;" x1="630.9646" x2="630.9646" y1="144.6958" y2="126.3625"/><line style="stroke:#000000;stroke-width:2.2917;" x1="1012.275" x2="1030.6083" y1="166.1458" y2="152.3958"/><line style="stroke:#000000;stroke-width:2.2917;" x1="1012.275" x2="1030.6083" y1="166.1458" y2="179.8958"/><line style="stroke:#000000;stroke-width:2.2917;" x1="1012.275" x2="1030.6083" y1="166.1458" y2="166.1458"/><ellipse cx="998.525" cy="166.1458" fill="none" rx="9.1667" ry="9.1667" style="stroke:#000000;stroke-width:2.2917;"/><text fill="#000000" font-family="sans-serif" font-size="29.7917" lengthAdjust="spacing" textLength="126.1054" x="682.5729" y="196.0908">contains</text></g><!--link si to attempts--><g class="link" data-entity-1="ent0011" data-entity-2="ent0012" data-link-type="crowfoot" data-source-line="53" id="lnk23"><path codeLine="53" d="M1347.5688,181.0417 C1483.2125,181.0417 1643.8813,181.0417 1643.8813,181.0417 C1643.8813,181.0417 1643.8813,284.9917 1643.8813,367.8125" fill="none" id="si-attempts" style="stroke:#000000;stroke-width:2.2917;"/><line style="stroke:#000000;stroke-width:2.2917;" x1="1338.4021" x2="1338.4021" y1="190.2083" y2="171.875"/><line style="stroke:#000000;stroke-width:2.2917;" x1="1345.2771" x2="1345.2771" y1="190.2083" y2="171.875"/><line style="stroke:#000000;stroke-width:2.2917;" x1="1347.5688" x2="1329.2354" y1="181.0417" y2="181.0417"/><line style="stroke:#000000;stroke-width:2.2917;" x1="1643.8813" x2="1657.6313" y1="390.7292" y2="409.0625"/><line style="stroke:#000000;stroke-width:2.2917;" x1="1643.8813" x2="1630.1313" y1="390.7292" y2="409.0625"/><line style="stroke:#000000;stroke-width:2.2917;" x1="1643.8813" x2="1643.8813" y1="390.7292" y2="409.0625"/><ellipse cx="1643.8813" cy="376.9792" fill="none" rx="9.1667" ry="9.1667" style="stroke:#000000;stroke-width:2.2917;"/><text fill="#000000" font-family="sans-serif" font-size="29.7917" lengthAdjust="spacing" textLength="111.8642" x="1488.2771" y="210.9866">records</text></g><!--link qc to attempts--><g class="link" data-entity-1="ent0004" data-entity-2="ent0012" data-link-type="crowfoot" data-source-line="56" id="lnk24"><path codeLine="56" d="M1341.3813,567.6229 C1341.3813,518.9708 1341.3813,474.375 1341.3813,474.375 C1341.3813,474.375 1404.7917,474.375 1490.6375,474.375" fill="none" id="qc-attempts" style="stroke:#000000;stroke-width:2.2917;"/><line style="stroke:#000000;stroke-width:2.2917;" x1="1350.5479" x2="1332.2146" y1="576.7896" y2="576.7896"/><line style="stroke:#000000;stroke-width:2.2917;" x1="1350.5479" x2="1332.2146" y1="569.9146" y2="569.9146"/><line style="stroke:#000000;stroke-width:2.2917;" x1="1341.3813" x2="1341.3813" y1="567.6229" y2="585.9563"/><line style="stroke:#000000;stroke-width:2.2917;" x1="1513.5542" x2="1531.8875" y1="474.375" y2="460.625"/><line style="stroke:#000000;stroke-width:2.2917;" x1="1513.5542" x2="1531.8875" y1="474.375" y2="488.125"/><line style="stroke:#000000;stroke-width:2.2917;" x1="1513.5542" x2="1531.8875" y1="474.375" y2="474.375"/><ellipse cx="1499.8042" cy="474.375" fill="none" rx="9.1667" ry="9.1667" style="stroke:#000000;stroke-width:2.2917;"/><text fill="#000000" font-family="sans-serif" font-size="29.7917" lengthAdjust="spacing" textLength="279.2096" x="1101.2604" y="504.32">selected_choice_id</text></g><!--link qv to attempts--><g class="link" data-entity-1="ent0003" data-entity-2="ent0012" data-link-type="crowfoot" data-source-line="59" id="lnk25"><path codeLine="59" d="M791.3812,567.8063 C791.3812,508.7958 791.3812,442.2917 791.3812,442.2917 C791.3812,442.2917 1260.3708,442.2917 1490.5917,442.2917" fill="none" id="qv-attempts" style="stroke:#000000;stroke-width:2.2917;"/><line style="stroke:#000000;stroke-width:2.2917;" x1="800.5479" x2="782.2146" y1="576.9729" y2="576.9729"/><line style="stroke:#000000;stroke-width:2.2917;" x1="800.5479" x2="782.2146" y1="570.0979" y2="570.0979"/><line style="stroke:#000000;stroke-width:2.2917;" x1="791.3812" x2="791.3812" y1="567.8063" y2="586.1396"/><line style="stroke:#000000;stroke-width:2.2917;" x1="1513.5083" x2="1531.8417" y1="442.2917" y2="428.5417"/><line style="stroke:#000000;stroke-width:2.2917;" x1="1513.5083" x2="1531.8417" y1="442.2917" y2="456.0417"/><line style="stroke:#000000;stroke-width:2.2917;" x1="1513.5083" x2="1531.8417" y1="442.2917" y2="442.2917"/><ellipse cx="1499.7583" cy="442.2917" fill="none" rx="9.1667" ry="9.1667" style="stroke:#000000;stroke-width:2.2917;"/><text fill="#000000" font-family="sans-serif" font-size="29.7917" lengthAdjust="spacing" textLength="294.8037" x="794.0625" y="472.2366">question_version_id</text></g><!--link users to uqs--><g class="link" data-entity-1="ent0009" data-entity-2="ent0013" data-link-type="crowfoot" data-source-line="62" id="lnk26"><path codeLine="62" d="M313.1333,261.25 C355.7583,261.25 343.8875,261.25 389.6062,261.25" fill="none" id="users-uqs" style="stroke:#000000;stroke-width:2.2917;"/><line style="stroke:#000000;stroke-width:2.2917;" x1="303.9667" x2="303.9667" y1="270.4167" y2="252.0833"/><line style="stroke:#000000;stroke-width:2.2917;" x1="310.8417" x2="310.8417" y1="270.4167" y2="252.0833"/><line style="stroke:#000000;stroke-width:2.2917;" x1="313.1333" x2="294.8" y1="261.25" y2="261.25"/><line style="stroke:#000000;stroke-width:2.2917;" x1="412.5229" x2="430.8562" y1="261.25" y2="247.5"/><line style="stroke:#000000;stroke-width:2.2917;" x1="412.5229" x2="430.8562" y1="261.25" y2="275"/><line style="stroke:#000000;stroke-width:2.2917;" x1="412.5229" x2="430.8562" y1="261.25" y2="261.25"/><ellipse cx="398.7729" cy="261.25" fill="none" rx="9.1667" ry="9.1667" style="stroke:#000000;stroke-width:2.2917;"/><text fill="#000000" font-family="sans-serif" font-size="29.7917" lengthAdjust="spacing" textLength="75.4683" x="365.1313" y="291.195">state</text></g><!--link questions to uqs--><g class="link" data-entity-1="ent0002" data-entity-2="ent0013" data-link-type="crowfoot" data-source-line="63" id="lnk27"><path codeLine="63" d="M288.7958,495.7563 C368.0875,495.7563 440.7563,495.7563 440.7563,495.7563 C440.7563,495.7563 440.7563,427.4187 440.7563,358.0729" fill="none" id="questions-uqs" style="stroke:#000000;stroke-width:2.2917;"/><line style="stroke:#000000;stroke-width:2.2917;" x1="279.6292" x2="279.6292" y1="504.9229" y2="486.5896"/><line style="stroke:#000000;stroke-width:2.2917;" x1="286.5042" x2="286.5042" y1="504.9229" y2="486.5896"/><line style="stroke:#000000;stroke-width:2.2917;" x1="288.7958" x2="270.4625" y1="495.7563" y2="495.7563"/><line style="stroke:#000000;stroke-width:2.2917;" x1="440.7563" x2="427.0063" y1="335.1563" y2="316.8229"/><line style="stroke:#000000;stroke-width:2.2917;" x1="440.7563" x2="454.5063" y1="335.1563" y2="316.8229"/><line style="stroke:#000000;stroke-width:2.2917;" x1="440.7563" x2="440.7563" y1="335.1563" y2="316.8229"/><ellipse cx="440.7563" cy="348.9063" fill="none" rx="9.1667" ry="9.1667" style="stroke:#000000;stroke-width:2.2917;"/><text fill="#000000" font-family="sans-serif" font-size="29.7917" lengthAdjust="spacing" textLength="91.3388" x="349.0896" y="482.4345">tracks</text></g><!--link users to reviews--><g class="link" data-entity-1="ent0009" data-entity-2="ent0014" data-link-type="crowfoot" data-source-line="65" id="lnk28"><path codeLine="65" d="M289.5062,335.225 C289.5062,388.8042 289.5062,443.4375 289.5062,443.4375 C289.5062,443.4375 352.8021,443.4375 445.9125,443.4375" fill="none" id="users-reviews" style="stroke:#000000;stroke-width:2.2917;"/><line style="stroke:#000000;stroke-width:2.2917;" x1="280.3396" x2="298.6729" y1="326.0583" y2="326.0583"/><line style="stroke:#000000;stroke-width:2.2917;" x1="280.3396" x2="298.6729" y1="332.9333" y2="332.9333"/><line style="stroke:#000000;stroke-width:2.2917;" x1="289.5062" x2="289.5062" y1="335.225" y2="316.8917"/><line style="stroke:#000000;stroke-width:2.2917;" x1="468.8292" x2="487.1625" y1="443.4375" y2="429.6875"/><line style="stroke:#000000;stroke-width:2.2917;" x1="468.8292" x2="487.1625" y1="443.4375" y2="457.1875"/><line style="stroke:#000000;stroke-width:2.2917;" x1="468.8292" x2="487.1625" y1="443.4375" y2="443.4375"/><ellipse cx="455.0792" cy="443.4375" fill="none" rx="9.1667" ry="9.1667" style="stroke:#000000;stroke-width:2.2917;"/><text fill="#000000" font-family="sans-serif" font-size="29.7917" lengthAdjust="spacing" textLength="149.0311" x="173.8229" y="473.3825">schedules</text></g><!--link questions to reviews--><g class="link" data-entity-1="ent0002" data-entity-2="ent0014" data-link-type="crowfoot" data-source-line="66" id="lnk29"><path codeLine="66" d="M288.8187,501.1187 C354.0854,501.1187 376.6125,501.1187 445.8208,501.1187" fill="none" id="questions-reviews" style="stroke:#000000;stroke-width:2.2917;"/><line style="stroke:#000000;stroke-width:2.2917;" x1="279.6521" x2="279.6521" y1="510.2854" y2="491.9521"/><line style="stroke:#000000;stroke-width:2.2917;" x1="286.5271" x2="286.5271" y1="510.2854" y2="491.9521"/><line style="stroke:#000000;stroke-width:2.2917;" x1="288.8187" x2="270.4854" y1="501.1187" y2="501.1187"/><line style="stroke:#000000;stroke-width:2.2917;" x1="468.7375" x2="487.0708" y1="501.1187" y2="487.3687"/><line style="stroke:#000000;stroke-width:2.2917;" x1="468.7375" x2="487.0708" y1="501.1187" y2="514.8688"/><line style="stroke:#000000;stroke-width:2.2917;" x1="468.7375" x2="487.0708" y1="501.1187" y2="501.1187"/><ellipse cx="454.9875" cy="501.1187" fill="none" rx="9.1667" ry="9.1667" style="stroke:#000000;stroke-width:2.2917;"/><text fill="#000000" font-family="sans-serif" font-size="29.7917" lengthAdjust="spacing" textLength="40.9635" x="337.5396" y="531.0637">for</text></g><?plantuml-src ZLJBRXin3BphAzXSag0mq0Oz-PQaxibfY_HrD6GjlKjObjOIrwcRzDzBxTlU5gWlbZYZeSZXwXKNk4Cuq3fen-eI5e_lmGJ_T1bXupt3rMShmBU7vRMok65W3u7oWY6ZW8R9EwNYbbofWzx1Mfjj7dpbidjlVG0MrIWGYlR0YeNE_1Ev73RQHXmXbXpoiKJmWGi_0hAIuERcZP8RVgTOQGl6edOZXh4wHdXM07Tdb_XH46EA-v1XQ69tLaWIkmrIwsdeWtVyKKjJbfh9mOENGmuU_KxIDUWN-eNmzftwdQwpS4nC61McnH4kzXN6r9Tu0Jf2lvlWgmE6EF0EKu8fF1biSQDw0kky2QR5FtLNFMr_uE6myTOsnZNWQFyNpafQjsk9zN8GggBaMPN1RyXYpQWZFHun3kLrctDqf1-f1pLBjEGctcrECw_wSYDhRlFluoadu87mgP5frycoU_5GU50G1XrCSLIzI_3oCflvPsaPpA7GKScY-NM0QG7H-QhpF4tnEb2M8rp9X1ndx6Vf7tPogq3QognarofvCMYpQEnqsQfFm_KTUrl-Ht_aOgVN-DMLqHS84voSiLM6TTh5JpHL8e8fD3bLMpegl_DHZeLAxEpt7Kvjk-OoM8v5GZXqsiBEqAI1HZxAElDj5uti0uAyIn05JFtbK74nbzofHCoW-IwKM35Lx4ZjnxEYB8b_AbDDycheAYFMQx8o97Emtcoxm-bbE_-4aZ_J59CFhScnH1rSkcuzaF2wdJYfei2iafSj7xhPgSh4jjsg3qtdS238Ksgsqgc9HZlOIQF9X76gCv0sFlm1?></g></svg>